<svg width="350" height="300" viewBox="350 350 700 650" fill="none" xmlns="http://www.w3.org/2000/svg">
<path fill-rule="evenodd" clip-rule="evenodd" d="M609.257 710.245L528.86 643.27L403.292 763.744L393.095 755.258L482.446 669.532L449.535 642.33L400.976 689.033L390.767 680.558L475.638 598.933L395.426 532.112L395.162 532.365L384.967 523.877L527.792 386.917L537.987 395.405L461.52 468.731L500.28 500.892L573.3 430.547L578.408 434.781L505.386 505.128L541.777 535.322L641.977 438.953L569.948 379.119L579.435 370L651.461 429.831L694.996 387.961L705.204 396.436L661.667 438.309L698.487 468.895L771.864 398.38L776.967 402.619L703.589 473.134L782.707 538.856L906.334 420.123L916.535 428.604L792.913 547.334L810.51 561.952C813.328 564.293 813.489 568.232 810.869 570.75C808.249 573.268 803.841 573.412 801.022 571.071L783.421 556.45L746.948 591.479C746.78 591.973 746.569 592.59 746.316 593.318C745.596 595.39 744.538 598.368 743.18 602.019C740.464 609.316 736.534 619.326 731.679 630.17C722.126 651.511 708.48 677.292 692.834 691.272C677.38 705.081 659.725 709.246 643.47 713.08L643.42 713.092C642.828 713.231 642.237 713.371 641.649 713.51C624.761 717.508 608.971 721.594 594.134 734.851L512.271 808L502.418 799.196L584.281 726.047C592.425 718.77 600.859 713.841 609.257 710.245ZM773.216 547.972L694.101 482.252L659.602 515.405L738.651 581.168L773.216 547.972ZM731.956 592.611L720.443 583.032L607.395 691.671L623.567 705.144L623.489 705.219C628.456 703.77 633.344 702.596 638.08 701.474L639.016 701.253C655.827 697.276 670.221 693.87 682.981 682.468C696.365 670.509 709.136 647.005 718.742 625.546C723.467 614.99 727.303 605.222 729.957 598.09C730.726 596.025 731.395 594.184 731.956 592.611ZM715.344 578.79L651.459 525.642L566.909 606.763L631.241 659.612L715.344 578.79ZM654.503 511.163L688.998 478.013L652.182 447.431L617.727 480.568L654.503 511.163ZM608.243 489.69L641.261 517.158L616.187 541.215L583.445 513.54L608.243 489.69ZM578.703 518.101L611.439 545.771L553.8 601.072L520.765 573.824L578.703 518.101ZM516.023 578.384L549.052 605.627L528.164 625.668L495.314 598.301L516.023 578.384ZM485.83 607.423L518.668 634.779L491.943 660.42L459.02 633.208L485.83 607.423ZM562.16 611.319L538.356 634.158L602.299 687.426L626.497 664.172L562.16 611.319ZM537.034 539.883L485.122 589.811L429.532 543.501L481.399 493.721L537.034 539.883ZM476.294 489.485L424.436 539.256L404.925 523.003L456.771 473.286L476.294 489.485Z" fill="white"/>
<path d="M605.93 571.922L608.922 562.625H611.086L607.008 574H605.547L605.93 571.922ZM603.164 562.625L606.133 571.922L606.539 574H605.07L601.008 562.625H603.164ZM614.188 565.547V574H612.297V565.547H614.188ZM612.172 563.328C612.172 563.042 612.266 562.805 612.453 562.617C612.646 562.424 612.911 562.328 613.25 562.328C613.583 562.328 613.846 562.424 614.039 562.617C614.232 562.805 614.328 563.042 614.328 563.328C614.328 563.609 614.232 563.844 614.039 564.031C613.846 564.219 613.583 564.312 613.25 564.312C612.911 564.312 612.646 564.219 612.453 564.031C612.266 563.844 612.172 563.609 612.172 563.328ZM620.992 571.711C620.992 571.523 620.945 571.354 620.852 571.203C620.758 571.047 620.578 570.906 620.312 570.781C620.052 570.656 619.667 570.542 619.156 570.438C618.708 570.339 618.297 570.221 617.922 570.086C617.552 569.945 617.234 569.776 616.969 569.578C616.703 569.38 616.497 569.146 616.352 568.875C616.206 568.604 616.133 568.292 616.133 567.938C616.133 567.594 616.208 567.268 616.359 566.961C616.51 566.654 616.727 566.383 617.008 566.148C617.289 565.914 617.63 565.729 618.031 565.594C618.438 565.458 618.891 565.391 619.391 565.391C620.099 565.391 620.706 565.51 621.211 565.75C621.721 565.984 622.112 566.305 622.383 566.711C622.654 567.112 622.789 567.565 622.789 568.07H620.906C620.906 567.846 620.849 567.638 620.734 567.445C620.625 567.247 620.458 567.089 620.234 566.969C620.01 566.844 619.729 566.781 619.391 566.781C619.068 566.781 618.799 566.833 618.586 566.938C618.378 567.036 618.221 567.167 618.117 567.328C618.018 567.49 617.969 567.667 617.969 567.859C617.969 568 617.995 568.128 618.047 568.242C618.104 568.352 618.198 568.453 618.328 568.547C618.458 568.635 618.635 568.719 618.859 568.797C619.089 568.875 619.375 568.951 619.719 569.023C620.365 569.159 620.919 569.333 621.383 569.547C621.852 569.755 622.211 570.026 622.461 570.359C622.711 570.688 622.836 571.104 622.836 571.609C622.836 571.984 622.755 572.328 622.594 572.641C622.438 572.948 622.208 573.216 621.906 573.445C621.604 573.669 621.242 573.844 620.82 573.969C620.404 574.094 619.935 574.156 619.414 574.156C618.648 574.156 618 574.021 617.469 573.75C616.938 573.474 616.534 573.122 616.258 572.695C615.987 572.263 615.852 571.815 615.852 571.352H617.672C617.693 571.701 617.789 571.979 617.961 572.188C618.138 572.391 618.357 572.539 618.617 572.633C618.883 572.721 619.156 572.766 619.438 572.766C619.776 572.766 620.06 572.721 620.289 572.633C620.518 572.539 620.693 572.414 620.812 572.258C620.932 572.096 620.992 571.914 620.992 571.711ZM626.5 565.547V574H624.609V565.547H626.5ZM624.484 563.328C624.484 563.042 624.578 562.805 624.766 562.617C624.958 562.424 625.224 562.328 625.562 562.328C625.896 562.328 626.159 562.424 626.352 562.617C626.544 562.805 626.641 563.042 626.641 563.328C626.641 563.609 626.544 563.844 626.352 564.031C626.159 564.219 625.896 564.312 625.562 564.312C625.224 564.312 624.958 564.219 624.766 564.031C624.578 563.844 624.484 563.609 624.484 563.328ZM632.438 565.547V566.922H627.672V565.547H632.438ZM629.047 563.477H630.93V571.664C630.93 571.924 630.966 572.125 631.039 572.266C631.117 572.401 631.224 572.492 631.359 572.539C631.495 572.586 631.654 572.609 631.836 572.609C631.966 572.609 632.091 572.602 632.211 572.586C632.331 572.57 632.427 572.555 632.5 572.539L632.508 573.977C632.352 574.023 632.169 574.065 631.961 574.102C631.758 574.138 631.523 574.156 631.258 574.156C630.826 574.156 630.443 574.081 630.109 573.93C629.776 573.773 629.516 573.521 629.328 573.172C629.141 572.823 629.047 572.359 629.047 571.781V563.477ZM642.961 572.008V565.547H644.852V574H643.07L642.961 572.008ZM643.227 570.25L643.859 570.234C643.859 570.802 643.797 571.326 643.672 571.805C643.547 572.279 643.354 572.693 643.094 573.047C642.833 573.396 642.5 573.669 642.094 573.867C641.688 574.06 641.201 574.156 640.633 574.156C640.221 574.156 639.844 574.096 639.5 573.977C639.156 573.857 638.859 573.672 638.609 573.422C638.365 573.172 638.174 572.846 638.039 572.445C637.904 572.044 637.836 571.565 637.836 571.008V565.547H639.719V571.023C639.719 571.331 639.755 571.589 639.828 571.797C639.901 572 640 572.164 640.125 572.289C640.25 572.414 640.396 572.503 640.562 572.555C640.729 572.607 640.906 572.633 641.094 572.633C641.63 572.633 642.052 572.529 642.359 572.32C642.672 572.107 642.893 571.82 643.023 571.461C643.159 571.102 643.227 570.698 643.227 570.25ZM651.523 571.711C651.523 571.523 651.477 571.354 651.383 571.203C651.289 571.047 651.109 570.906 650.844 570.781C650.583 570.656 650.198 570.542 649.688 570.438C649.24 570.339 648.828 570.221 648.453 570.086C648.083 569.945 647.766 569.776 647.5 569.578C647.234 569.38 647.029 569.146 646.883 568.875C646.737 568.604 646.664 568.292 646.664 567.938C646.664 567.594 646.74 567.268 646.891 566.961C647.042 566.654 647.258 566.383 647.539 566.148C647.82 565.914 648.161 565.729 648.562 565.594C648.969 565.458 649.422 565.391 649.922 565.391C650.63 565.391 651.237 565.51 651.742 565.75C652.253 565.984 652.643 566.305 652.914 566.711C653.185 567.112 653.32 567.565 653.32 568.07H651.438C651.438 567.846 651.38 567.638 651.266 567.445C651.156 567.247 650.99 567.089 650.766 566.969C650.542 566.844 650.26 566.781 649.922 566.781C649.599 566.781 649.331 566.833 649.117 566.938C648.909 567.036 648.753 567.167 648.648 567.328C648.549 567.49 648.5 567.667 648.5 567.859C648.5 568 648.526 568.128 648.578 568.242C648.635 568.352 648.729 568.453 648.859 568.547C648.99 568.635 649.167 568.719 649.391 568.797C649.62 568.875 649.906 568.951 650.25 569.023C650.896 569.159 651.451 569.333 651.914 569.547C652.383 569.755 652.742 570.026 652.992 570.359C653.242 570.688 653.367 571.104 653.367 571.609C653.367 571.984 653.286 572.328 653.125 572.641C652.969 572.948 652.74 573.216 652.438 573.445C652.135 573.669 651.773 573.844 651.352 573.969C650.935 574.094 650.466 574.156 649.945 574.156C649.18 574.156 648.531 574.021 648 573.75C647.469 573.474 647.065 573.122 646.789 572.695C646.518 572.263 646.383 571.815 646.383 571.352H648.203C648.224 571.701 648.32 571.979 648.492 572.188C648.669 572.391 648.888 572.539 649.148 572.633C649.414 572.721 649.688 572.766 649.969 572.766C650.307 572.766 650.591 572.721 650.82 572.633C651.049 572.539 651.224 572.414 651.344 572.258C651.464 572.096 651.523 571.914 651.523 571.711ZM663.766 572.305V568.273C663.766 567.971 663.711 567.711 663.602 567.492C663.492 567.273 663.326 567.104 663.102 566.984C662.883 566.865 662.607 566.805 662.273 566.805C661.966 566.805 661.701 566.857 661.477 566.961C661.253 567.065 661.078 567.206 660.953 567.383C660.828 567.56 660.766 567.76 660.766 567.984H658.891C658.891 567.651 658.971 567.328 659.133 567.016C659.294 566.703 659.529 566.424 659.836 566.18C660.143 565.935 660.51 565.742 660.938 565.602C661.365 565.461 661.844 565.391 662.375 565.391C663.01 565.391 663.573 565.497 664.062 565.711C664.557 565.924 664.945 566.247 665.227 566.68C665.513 567.107 665.656 567.643 665.656 568.289V572.047C665.656 572.432 665.682 572.779 665.734 573.086C665.792 573.388 665.872 573.651 665.977 573.875V574H664.047C663.958 573.797 663.888 573.539 663.836 573.227C663.789 572.909 663.766 572.602 663.766 572.305ZM664.039 568.859L664.055 570.023H662.703C662.354 570.023 662.047 570.057 661.781 570.125C661.516 570.188 661.294 570.281 661.117 570.406C660.94 570.531 660.807 570.682 660.719 570.859C660.63 571.036 660.586 571.237 660.586 571.461C660.586 571.685 660.638 571.891 660.742 572.078C660.846 572.26 660.997 572.404 661.195 572.508C661.398 572.612 661.643 572.664 661.93 572.664C662.315 572.664 662.651 572.586 662.938 572.43C663.229 572.268 663.458 572.073 663.625 571.844C663.792 571.609 663.88 571.388 663.891 571.18L664.5 572.016C664.438 572.229 664.331 572.458 664.18 572.703C664.029 572.948 663.831 573.182 663.586 573.406C663.346 573.625 663.057 573.805 662.719 573.945C662.385 574.086 662 574.156 661.562 574.156C661.01 574.156 660.518 574.047 660.086 573.828C659.654 573.604 659.315 573.305 659.07 572.93C658.826 572.549 658.703 572.12 658.703 571.641C658.703 571.193 658.786 570.797 658.953 570.453C659.125 570.104 659.375 569.812 659.703 569.578C660.036 569.344 660.443 569.167 660.922 569.047C661.401 568.922 661.948 568.859 662.562 568.859H664.039ZM671.5 565.547V566.922H666.734V565.547H671.5ZM668.109 563.477H669.992V571.664C669.992 571.924 670.029 572.125 670.102 572.266C670.18 572.401 670.286 572.492 670.422 572.539C670.557 572.586 670.716 572.609 670.898 572.609C671.029 572.609 671.154 572.602 671.273 572.586C671.393 572.57 671.49 572.555 671.562 572.539L671.57 573.977C671.414 574.023 671.232 574.065 671.023 574.102C670.82 574.138 670.586 574.156 670.32 574.156C669.888 574.156 669.505 574.081 669.172 573.93C668.839 573.773 668.578 573.521 668.391 573.172C668.203 572.823 668.109 572.359 668.109 571.781V563.477ZM676.578 569.867V569.688C676.578 569.078 676.667 568.513 676.844 567.992C677.021 567.466 677.276 567.01 677.609 566.625C677.948 566.234 678.359 565.932 678.844 565.719C679.333 565.5 679.885 565.391 680.5 565.391C681.12 565.391 681.672 565.5 682.156 565.719C682.646 565.932 683.06 566.234 683.398 566.625C683.737 567.01 683.995 567.466 684.172 567.992C684.349 568.513 684.438 569.078 684.438 569.688V569.867C684.438 570.477 684.349 571.042 684.172 571.562C683.995 572.083 683.737 572.539 683.398 572.93C683.06 573.315 682.648 573.617 682.164 573.836C681.68 574.049 681.13 574.156 680.516 574.156C679.896 574.156 679.341 574.049 678.852 573.836C678.367 573.617 677.956 573.315 677.617 572.93C677.279 572.539 677.021 572.083 676.844 571.562C676.667 571.042 676.578 570.477 676.578 569.867ZM678.461 569.688V569.867C678.461 570.247 678.5 570.607 678.578 570.945C678.656 571.284 678.779 571.581 678.945 571.836C679.112 572.091 679.326 572.292 679.586 572.438C679.846 572.583 680.156 572.656 680.516 572.656C680.865 572.656 681.167 572.583 681.422 572.438C681.682 572.292 681.896 572.091 682.062 571.836C682.229 571.581 682.352 571.284 682.43 570.945C682.513 570.607 682.555 570.247 682.555 569.867V569.688C682.555 569.312 682.513 568.958 682.43 568.625C682.352 568.286 682.227 567.987 682.055 567.727C681.888 567.466 681.674 567.263 681.414 567.117C681.159 566.966 680.854 566.891 680.5 566.891C680.146 566.891 679.839 566.966 679.578 567.117C679.323 567.263 679.112 567.466 678.945 567.727C678.779 567.987 678.656 568.286 678.578 568.625C678.5 568.958 678.461 569.312 678.461 569.688ZM691.102 572.008V565.547H692.992V574H691.211L691.102 572.008ZM691.367 570.25L692 570.234C692 570.802 691.938 571.326 691.812 571.805C691.688 572.279 691.495 572.693 691.234 573.047C690.974 573.396 690.641 573.669 690.234 573.867C689.828 574.06 689.341 574.156 688.773 574.156C688.362 574.156 687.984 574.096 687.641 573.977C687.297 573.857 687 573.672 686.75 573.422C686.505 573.172 686.315 572.846 686.18 572.445C686.044 572.044 685.977 571.565 685.977 571.008V565.547H687.859V571.023C687.859 571.331 687.896 571.589 687.969 571.797C688.042 572 688.141 572.164 688.266 572.289C688.391 572.414 688.536 572.503 688.703 572.555C688.87 572.607 689.047 572.633 689.234 572.633C689.771 572.633 690.193 572.529 690.5 572.32C690.812 572.107 691.034 571.82 691.164 571.461C691.299 571.102 691.367 570.698 691.367 570.25ZM696.812 567.156V574H694.93V565.547H696.727L696.812 567.156ZM699.398 565.492L699.383 567.242C699.268 567.221 699.143 567.206 699.008 567.195C698.878 567.185 698.747 567.18 698.617 567.18C698.294 567.18 698.01 567.227 697.766 567.32C697.521 567.409 697.315 567.539 697.148 567.711C696.987 567.878 696.862 568.081 696.773 568.32C696.685 568.56 696.633 568.828 696.617 569.125L696.188 569.156C696.188 568.625 696.24 568.133 696.344 567.68C696.448 567.227 696.604 566.828 696.812 566.484C697.026 566.141 697.292 565.872 697.609 565.68C697.932 565.487 698.305 565.391 698.727 565.391C698.841 565.391 698.964 565.401 699.094 565.422C699.229 565.443 699.331 565.466 699.398 565.492ZM706.578 562V574H704.688V562H706.578ZM708.281 569.867V569.688C708.281 569.078 708.37 568.513 708.547 567.992C708.724 567.466 708.979 567.01 709.312 566.625C709.651 566.234 710.062 565.932 710.547 565.719C711.036 565.5 711.589 565.391 712.203 565.391C712.823 565.391 713.375 565.5 713.859 565.719C714.349 565.932 714.763 566.234 715.102 566.625C715.44 567.01 715.698 567.466 715.875 567.992C716.052 568.513 716.141 569.078 716.141 569.688V569.867C716.141 570.477 716.052 571.042 715.875 571.562C715.698 572.083 715.44 572.539 715.102 572.93C714.763 573.315 714.352 573.617 713.867 573.836C713.383 574.049 712.833 574.156 712.219 574.156C711.599 574.156 711.044 574.049 710.555 573.836C710.07 573.617 709.659 573.315 709.32 572.93C708.982 572.539 708.724 572.083 708.547 571.562C708.37 571.042 708.281 570.477 708.281 569.867ZM710.164 569.688V569.867C710.164 570.247 710.203 570.607 710.281 570.945C710.359 571.284 710.482 571.581 710.648 571.836C710.815 572.091 711.029 572.292 711.289 572.438C711.549 572.583 711.859 572.656 712.219 572.656C712.568 572.656 712.87 572.583 713.125 572.438C713.385 572.292 713.599 572.091 713.766 571.836C713.932 571.581 714.055 571.284 714.133 570.945C714.216 570.607 714.258 570.247 714.258 569.867V569.688C714.258 569.312 714.216 568.958 714.133 568.625C714.055 568.286 713.93 567.987 713.758 567.727C713.591 567.466 713.378 567.263 713.117 567.117C712.862 566.966 712.557 566.891 712.203 566.891C711.849 566.891 711.542 566.966 711.281 567.117C711.026 567.263 710.815 567.466 710.648 567.727C710.482 567.987 710.359 568.286 710.281 568.625C710.203 568.958 710.164 569.312 710.164 569.688ZM721.172 572.656C721.479 572.656 721.755 572.596 722 572.477C722.25 572.352 722.451 572.18 722.602 571.961C722.758 571.742 722.844 571.49 722.859 571.203H724.633C724.622 571.75 724.461 572.247 724.148 572.695C723.836 573.143 723.422 573.5 722.906 573.766C722.391 574.026 721.82 574.156 721.195 574.156C720.549 574.156 719.987 574.047 719.508 573.828C719.029 573.604 718.63 573.297 718.312 572.906C717.995 572.516 717.755 572.065 717.594 571.555C717.438 571.044 717.359 570.497 717.359 569.914V569.641C717.359 569.057 717.438 568.51 717.594 568C717.755 567.484 717.995 567.031 718.312 566.641C718.63 566.25 719.029 565.945 719.508 565.727C719.987 565.503 720.547 565.391 721.188 565.391C721.865 565.391 722.458 565.526 722.969 565.797C723.479 566.062 723.88 566.435 724.172 566.914C724.469 567.388 724.622 567.94 724.633 568.57H722.859C722.844 568.258 722.766 567.977 722.625 567.727C722.49 567.471 722.297 567.268 722.047 567.117C721.802 566.966 721.508 566.891 721.164 566.891C720.784 566.891 720.469 566.969 720.219 567.125C719.969 567.276 719.773 567.484 719.633 567.75C719.492 568.01 719.391 568.305 719.328 568.633C719.271 568.956 719.242 569.292 719.242 569.641V569.914C719.242 570.263 719.271 570.602 719.328 570.93C719.385 571.258 719.484 571.552 719.625 571.812C719.771 572.068 719.969 572.273 720.219 572.43C720.469 572.581 720.786 572.656 721.172 572.656ZM730.844 572.305V568.273C730.844 567.971 730.789 567.711 730.68 567.492C730.57 567.273 730.404 567.104 730.18 566.984C729.961 566.865 729.685 566.805 729.352 566.805C729.044 566.805 728.779 566.857 728.555 566.961C728.331 567.065 728.156 567.206 728.031 567.383C727.906 567.56 727.844 567.76 727.844 567.984H725.969C725.969 567.651 726.049 567.328 726.211 567.016C726.372 566.703 726.607 566.424 726.914 566.18C727.221 565.935 727.589 565.742 728.016 565.602C728.443 565.461 728.922 565.391 729.453 565.391C730.089 565.391 730.651 565.497 731.141 565.711C731.635 565.924 732.023 566.247 732.305 566.68C732.591 567.107 732.734 567.643 732.734 568.289V572.047C732.734 572.432 732.76 572.779 732.812 573.086C732.87 573.388 732.951 573.651 733.055 573.875V574H731.125C731.036 573.797 730.966 573.539 730.914 573.227C730.867 572.909 730.844 572.602 730.844 572.305ZM731.117 568.859L731.133 570.023H729.781C729.432 570.023 729.125 570.057 728.859 570.125C728.594 570.188 728.372 570.281 728.195 570.406C728.018 570.531 727.885 570.682 727.797 570.859C727.708 571.036 727.664 571.237 727.664 571.461C727.664 571.685 727.716 571.891 727.82 572.078C727.924 572.26 728.076 572.404 728.273 572.508C728.477 572.612 728.721 572.664 729.008 572.664C729.393 572.664 729.729 572.586 730.016 572.43C730.307 572.268 730.536 572.073 730.703 571.844C730.87 571.609 730.958 571.388 730.969 571.18L731.578 572.016C731.516 572.229 731.409 572.458 731.258 572.703C731.107 572.948 730.909 573.182 730.664 573.406C730.424 573.625 730.135 573.805 729.797 573.945C729.464 574.086 729.078 574.156 728.641 574.156C728.089 574.156 727.596 574.047 727.164 573.828C726.732 573.604 726.393 573.305 726.148 572.93C725.904 572.549 725.781 572.12 725.781 571.641C725.781 571.193 725.865 570.797 726.031 570.453C726.203 570.104 726.453 569.812 726.781 569.578C727.115 569.344 727.521 569.167 728 569.047C728.479 568.922 729.026 568.859 729.641 568.859H731.117ZM738.578 565.547V566.922H733.812V565.547H738.578ZM735.188 563.477H737.07V571.664C737.07 571.924 737.107 572.125 737.18 572.266C737.258 572.401 737.365 572.492 737.5 572.539C737.635 572.586 737.794 572.609 737.977 572.609C738.107 572.609 738.232 572.602 738.352 572.586C738.471 572.57 738.568 572.555 738.641 572.539L738.648 573.977C738.492 574.023 738.31 574.065 738.102 574.102C737.898 574.138 737.664 574.156 737.398 574.156C736.966 574.156 736.583 574.081 736.25 573.93C735.917 573.773 735.656 573.521 735.469 573.172C735.281 572.823 735.188 572.359 735.188 571.781V563.477ZM742.047 565.547V574H740.156V565.547H742.047ZM740.031 563.328C740.031 563.042 740.125 562.805 740.312 562.617C740.505 562.424 740.771 562.328 741.109 562.328C741.443 562.328 741.706 562.424 741.898 562.617C742.091 562.805 742.188 563.042 742.188 563.328C742.188 563.609 742.091 563.844 741.898 564.031C741.706 564.219 741.443 564.312 741.109 564.312C740.771 564.312 740.505 564.219 740.312 564.031C740.125 563.844 740.031 563.609 740.031 563.328ZM743.75 569.867V569.688C743.75 569.078 743.839 568.513 744.016 567.992C744.193 567.466 744.448 567.01 744.781 566.625C745.12 566.234 745.531 565.932 746.016 565.719C746.505 565.5 747.057 565.391 747.672 565.391C748.292 565.391 748.844 565.5 749.328 565.719C749.818 565.932 750.232 566.234 750.57 566.625C750.909 567.01 751.167 567.466 751.344 567.992C751.521 568.513 751.609 569.078 751.609 569.688V569.867C751.609 570.477 751.521 571.042 751.344 571.562C751.167 572.083 750.909 572.539 750.57 572.93C750.232 573.315 749.82 573.617 749.336 573.836C748.852 574.049 748.302 574.156 747.688 574.156C747.068 574.156 746.513 574.049 746.023 573.836C745.539 573.617 745.128 573.315 744.789 572.93C744.451 572.539 744.193 572.083 744.016 571.562C743.839 571.042 743.75 570.477 743.75 569.867ZM745.633 569.688V569.867C745.633 570.247 745.672 570.607 745.75 570.945C745.828 571.284 745.951 571.581 746.117 571.836C746.284 572.091 746.497 572.292 746.758 572.438C747.018 572.583 747.328 572.656 747.688 572.656C748.036 572.656 748.339 572.583 748.594 572.438C748.854 572.292 749.068 572.091 749.234 571.836C749.401 571.581 749.523 571.284 749.602 570.945C749.685 570.607 749.727 570.247 749.727 569.867V569.688C749.727 569.312 749.685 568.958 749.602 568.625C749.523 568.286 749.398 567.987 749.227 567.727C749.06 567.466 748.846 567.263 748.586 567.117C748.331 566.966 748.026 566.891 747.672 566.891C747.318 566.891 747.01 566.966 746.75 567.117C746.495 567.263 746.284 567.466 746.117 567.727C745.951 567.987 745.828 568.286 745.75 568.625C745.672 568.958 745.633 569.312 745.633 569.688ZM755.055 567.352V574H753.172V565.547H754.945L755.055 567.352ZM754.719 569.461L754.109 569.453C754.115 568.854 754.198 568.305 754.359 567.805C754.526 567.305 754.755 566.875 755.047 566.516C755.344 566.156 755.698 565.88 756.109 565.688C756.521 565.49 756.979 565.391 757.484 565.391C757.891 565.391 758.258 565.448 758.586 565.562C758.919 565.672 759.203 565.852 759.438 566.102C759.677 566.352 759.859 566.677 759.984 567.078C760.109 567.474 760.172 567.961 760.172 568.539V574H758.281V568.531C758.281 568.125 758.221 567.805 758.102 567.57C757.987 567.331 757.818 567.161 757.594 567.062C757.375 566.958 757.102 566.906 756.773 566.906C756.451 566.906 756.161 566.974 755.906 567.109C755.651 567.245 755.435 567.43 755.258 567.664C755.086 567.898 754.953 568.169 754.859 568.477C754.766 568.784 754.719 569.112 754.719 569.461Z" fill="black"/>
<path fill-rule="evenodd" clip-rule="evenodd" d="M681.835 547.937C683.215 546.08 686.021 542.261 687.201 540.334C688.145 538.795 689 537.129 689 535.171C689 530.658 685.418 527 680.999 527C676.582 527 673 530.658 673 535.171C673 537.147 673.84 538.84 674.827 540.37C676.028 542.234 678.859 546.072 680.247 547.937C680.644 548.471 681.438 548.471 681.835 547.937ZM681 538C682.657 538 684 536.656 684 535.001C684 533.344 682.657 532 681 532C679.343 532 678 533.344 678 535.001C678 536.656 679.343 538 681 538Z" fill="black" fill-opacity="0.3"/>
<rect x="677.823" y="540" width="15" height="15" transform="rotate(27.0565 677.823 540)" fill="#119CB1"/>
</svg>
