<svg width="59" height="10" viewBox="0 0 59 10" fill="none" xmlns="http://www.w3.org/2000/svg">
<path d="M5.41923 0.373017C5.60264 0.00139391 6.13256 0.00139329 6.31597 0.373016L7.51462 2.80175C7.58745 2.94932 7.72824 3.05161 7.89109 3.07527L10.5714 3.46474C10.9815 3.52433 11.1452 4.02832 10.8485 4.31758L8.90901 6.20809C8.79116 6.32296 8.73739 6.48846 8.76521 6.65066L9.22305 9.32009C9.29311 9.72855 8.86439 10.04 8.49758 9.84718L6.10027 8.58685C5.95461 8.51027 5.78059 8.51027 5.63493 8.58685L3.23763 9.84718C2.87082 10.04 2.4421 9.72855 2.51215 9.3201L2.97 6.65066C2.99782 6.48846 2.94404 6.32296 2.8262 6.20809L0.88674 4.31758C0.589981 4.02832 0.753736 3.52433 1.16385 3.46474L3.84411 3.07527C4.00697 3.05161 4.14775 2.94932 4.22058 2.80175L5.41923 0.373017ZM17.4192 0.373017C17.6026 0.00139391 18.1326 0.00139329 18.316 0.373016L19.5146 2.80175C19.5875 2.94932 19.7282 3.05161 19.8911 3.07527L22.5714 3.46474C22.9815 3.52433 23.1452 4.02832 22.8485 4.31758L20.909 6.20809C20.7912 6.32296 20.7374 6.48846 20.7652 6.65066L21.2231 9.32009C21.2931 9.72855 20.8644 10.04 20.4976 9.84718L18.1003 8.58685C17.9546 8.51027 17.7806 8.51027 17.6349 8.58685L15.2376 9.84718C14.8708 10.04 14.4421 9.72855 14.5122 9.3201L14.97 6.65066C14.9978 6.48846 14.944 6.32296 14.8262 6.20809L12.8867 4.31758C12.59 4.02832 12.7537 3.52433 13.1638 3.46474L15.8441 3.07527C16.007 3.05161 16.1478 2.94932 16.2206 2.80175L17.4192 0.373017ZM29.4192 0.373017C29.6026 0.00139391 30.1326 0.00139329 30.316 0.373016L31.5146 2.80175C31.5875 2.94932 31.7282 3.05161 31.8911 3.07527L34.5714 3.46474C34.9815 3.52433 35.1452 4.02832 34.8485 4.31758L32.909 6.20809C32.7912 6.32296 32.7374 6.48846 32.7652 6.65066L33.2231 9.32009C33.2931 9.72855 32.8644 10.04 32.4976 9.84718L30.1003 8.58685C29.9546 8.51027 29.7806 8.51027 29.6349 8.58685L27.2376 9.84718C26.8708 10.04 26.4421 9.72855 26.5122 9.3201L26.97 6.65066C26.9978 6.48846 26.944 6.32296 26.8262 6.20809L24.8867 4.31758C24.59 4.02832 24.7537 3.52433 25.1638 3.46474L27.8441 3.07527C28.007 3.05161 28.1478 2.94932 28.2206 2.80175L29.4192 0.373017ZM41.4192 0.373017C41.6026 0.00139391 42.1326 0.00139329 42.316 0.373016L43.5146 2.80175C43.5875 2.94932 43.7282 3.05161 43.8911 3.07527L46.5714 3.46474C46.9815 3.52433 47.1452 4.02832 46.8485 4.31758L44.909 6.20809C44.7912 6.32296 44.7374 6.48846 44.7652 6.65066L45.2231 9.32009C45.2931 9.72855 44.8644 10.04 44.4976 9.84718L42.1003 8.58685C41.9546 8.51027 41.7806 8.51027 41.6349 8.58685L39.2376 9.84718C38.8708 10.04 38.4421 9.72855 38.5122 9.3201L38.97 6.65066C38.9978 6.48846 38.944 6.32296 38.8262 6.20809L36.8867 4.31758C36.59 4.02832 36.7537 3.52433 37.1638 3.46474L39.8441 3.07527C40.007 3.05161 40.1478 2.94932 40.2206 2.80175L41.4192 0.373017ZM53.4192 0.373017C53.6026 0.00139391 54.1326 0.00139329 54.316 0.373016L55.5146 2.80175C55.5875 2.94932 55.7282 3.05161 55.8911 3.07527L58.5714 3.46474C58.9815 3.52433 59.1452 4.02832 58.8485 4.31758L56.909 6.20809C56.7912 6.32296 56.7374 6.48846 56.7652 6.65066L57.2231 9.32009C57.2931 9.72855 56.8644 10.04 56.4976 9.84718L54.1003 8.58685C53.9546 8.51027 53.7806 8.51027 53.6349 8.58685L51.2376 9.84718C50.8708 10.04 50.4421 9.72855 50.5122 9.3201L50.97 6.65066C50.9978 6.48846 50.944 6.32296 50.8262 6.20809L48.8867 4.31758C48.59 4.02832 48.7537 3.52433 49.1638 3.46474L51.8441 3.07527C52.007 3.05161 52.1478 2.94932 52.2206 2.80175L53.4192 0.373017Z" fill="#FFC700"/>
<path d="M5.41923 0.373017C5.60264 0.00139391 6.13256 0.00139329 6.31597 0.373016L7.51462 2.80175C7.58745 2.94932 7.72824 3.05161 7.89109 3.07527L10.5714 3.46474C10.9815 3.52433 11.1452 4.02832 10.8485 4.31758L8.90901 6.20809C8.79116 6.32296 8.73739 6.48846 8.76521 6.65066L9.22305 9.32009C9.29311 9.72855 8.86439 10.04 8.49758 9.84718L6.10027 8.58685C5.95461 8.51027 5.78059 8.51027 5.63493 8.58685L3.23763 9.84718C2.87082 10.04 2.4421 9.72855 2.51215 9.3201L2.97 6.65066C2.99782 6.48846 2.94404 6.32296 2.8262 6.20809L0.88674 4.31758C0.589981 4.02832 0.753736 3.52433 1.16385 3.46474L3.84411 3.07527C4.00697 3.05161 4.14775 2.94932 4.22058 2.80175L5.41923 0.373017ZM17.4192 0.373017C17.6026 0.00139391 18.1326 0.00139329 18.316 0.373016L19.5146 2.80175C19.5875 2.94932 19.7282 3.05161 19.8911 3.07527L22.5714 3.46474C22.9815 3.52433 23.1452 4.02832 22.8485 4.31758L20.909 6.20809C20.7912 6.32296 20.7374 6.48846 20.7652 6.65066L21.2231 9.32009C21.2931 9.72855 20.8644 10.04 20.4976 9.84718L18.1003 8.58685C17.9546 8.51027 17.7806 8.51027 17.6349 8.58685L15.2376 9.84718C14.8708 10.04 14.4421 9.72855 14.5122 9.3201L14.97 6.65066C14.9978 6.48846 14.944 6.32296 14.8262 6.20809L12.8867 4.31758C12.59 4.02832 12.7537 3.52433 13.1638 3.46474L15.8441 3.07527C16.007 3.05161 16.1478 2.94932 16.2206 2.80175L17.4192 0.373017ZM29.4192 0.373017C29.6026 0.00139391 30.1326 0.00139329 30.316 0.373016L31.5146 2.80175C31.5875 2.94932 31.7282 3.05161 31.8911 3.07527L34.5714 3.46474C34.9815 3.52433 35.1452 4.02832 34.8485 4.31758L32.909 6.20809C32.7912 6.32296 32.7374 6.48846 32.7652 6.65066L33.2231 9.32009C33.2931 9.72855 32.8644 10.04 32.4976 9.84718L30.1003 8.58685C29.9546 8.51027 29.7806 8.51027 29.6349 8.58685L27.2376 9.84718C26.8708 10.04 26.4421 9.72855 26.5122 9.3201L26.97 6.65066C26.9978 6.48846 26.944 6.32296 26.8262 6.20809L24.8867 4.31758C24.59 4.02832 24.7537 3.52433 25.1638 3.46474L27.8441 3.07527C28.007 3.05161 28.1478 2.94932 28.2206 2.80175L29.4192 0.373017ZM41.4192 0.373017C41.6026 0.00139391 42.1326 0.00139329 42.316 0.373016L43.5146 2.80175C43.5875 2.94932 43.7282 3.05161 43.8911 3.07527L46.5714 3.46474C46.9815 3.52433 47.1452 4.02832 46.8485 4.31758L44.909 6.20809C44.7912 6.32296 44.7374 6.48846 44.7652 6.65066L45.2231 9.32009C45.2931 9.72855 44.8644 10.04 44.4976 9.84718L42.1003 8.58685C41.9546 8.51027 41.7806 8.51027 41.6349 8.58685L39.2376 9.84718C38.8708 10.04 38.4421 9.72855 38.5122 9.3201L38.97 6.65066C38.9978 6.48846 38.944 6.32296 38.8262 6.20809L36.8867 4.31758C36.59 4.02832 36.7537 3.52433 37.1638 3.46474L39.8441 3.07527C40.007 3.05161 40.1478 2.94932 40.2206 2.80175L41.4192 0.373017ZM53.4192 0.373017C53.6026 0.00139391 54.1326 0.00139329 54.316 0.373016L55.5146 2.80175C55.5875 2.94932 55.7282 3.05161 55.8911 3.07527L58.5714 3.46474C58.9815 3.52433 59.1452 4.02832 58.8485 4.31758L56.909 6.20809C56.7912 6.32296 56.7374 6.48846 56.7652 6.65066L57.2231 9.32009C57.2931 9.72855 56.8644 10.04 56.4976 9.84718L54.1003 8.58685C53.9546 8.51027 53.7806 8.51027 53.6349 8.58685L51.2376 9.84718C50.8708 10.04 50.4421 9.72855 50.5122 9.3201L50.97 6.65066C50.9978 6.48846 50.944 6.32296 50.8262 6.20809L48.8867 4.31758C48.59 4.02832 48.7537 3.52433 49.1638 3.46474L51.8441 3.07527C52.007 3.05161 52.1478 2.94932 52.2206 2.80175L53.4192 0.373017Z" fill="#FFC700"/>
<path d="M5.41923 0.373017C5.60264 0.00139391 6.13256 0.00139329 6.31597 0.373016L7.51462 2.80175C7.58745 2.94932 7.72824 3.05161 7.89109 3.07527L10.5714 3.46474C10.9815 3.52433 11.1452 4.02832 10.8485 4.31758L8.90901 6.20809C8.79116 6.32296 8.73739 6.48846 8.76521 6.65066L9.22305 9.32009C9.29311 9.72855 8.86439 10.04 8.49758 9.84718L6.10027 8.58685C5.95461 8.51027 5.78059 8.51027 5.63493 8.58685L3.23763 9.84718C2.87082 10.04 2.4421 9.72855 2.51215 9.3201L2.97 6.65066C2.99782 6.48846 2.94404 6.32296 2.8262 6.20809L0.88674 4.31758C0.589981 4.02832 0.753736 3.52433 1.16385 3.46474L3.84411 3.07527C4.00697 3.05161 4.14775 2.94932 4.22058 2.80175L5.41923 0.373017ZM17.4192 0.373017C17.6026 0.00139391 18.1326 0.00139329 18.316 0.373016L19.5146 2.80175C19.5875 2.94932 19.7282 3.05161 19.8911 3.07527L22.5714 3.46474C22.9815 3.52433 23.1452 4.02832 22.8485 4.31758L20.909 6.20809C20.7912 6.32296 20.7374 6.48846 20.7652 6.65066L21.2231 9.32009C21.2931 9.72855 20.8644 10.04 20.4976 9.84718L18.1003 8.58685C17.9546 8.51027 17.7806 8.51027 17.6349 8.58685L15.2376 9.84718C14.8708 10.04 14.4421 9.72855 14.5122 9.3201L14.97 6.65066C14.9978 6.48846 14.944 6.32296 14.8262 6.20809L12.8867 4.31758C12.59 4.02832 12.7537 3.52433 13.1638 3.46474L15.8441 3.07527C16.007 3.05161 16.1478 2.94932 16.2206 2.80175L17.4192 0.373017ZM29.4192 0.373017C29.6026 0.00139391 30.1326 0.00139329 30.316 0.373016L31.5146 2.80175C31.5875 2.94932 31.7282 3.05161 31.8911 3.07527L34.5714 3.46474C34.9815 3.52433 35.1452 4.02832 34.8485 4.31758L32.909 6.20809C32.7912 6.32296 32.7374 6.48846 32.7652 6.65066L33.2231 9.32009C33.2931 9.72855 32.8644 10.04 32.4976 9.84718L30.1003 8.58685C29.9546 8.51027 29.7806 8.51027 29.6349 8.58685L27.2376 9.84718C26.8708 10.04 26.4421 9.72855 26.5122 9.3201L26.97 6.65066C26.9978 6.48846 26.944 6.32296 26.8262 6.20809L24.8867 4.31758C24.59 4.02832 24.7537 3.52433 25.1638 3.46474L27.8441 3.07527C28.007 3.05161 28.1478 2.94932 28.2206 2.80175L29.4192 0.373017ZM41.4192 0.373017C41.6026 0.00139391 42.1326 0.00139329 42.316 0.373016L43.5146 2.80175C43.5875 2.94932 43.7282 3.05161 43.8911 3.07527L46.5714 3.46474C46.9815 3.52433 47.1452 4.02832 46.8485 4.31758L44.909 6.20809C44.7912 6.32296 44.7374 6.48846 44.7652 6.65066L45.2231 9.32009C45.2931 9.72855 44.8644 10.04 44.4976 9.84718L42.1003 8.58685C41.9546 8.51027 41.7806 8.51027 41.6349 8.58685L39.2376 9.84718C38.8708 10.04 38.4421 9.72855 38.5122 9.3201L38.97 6.65066C38.9978 6.48846 38.944 6.32296 38.8262 6.20809L36.8867 4.31758C36.59 4.02832 36.7537 3.52433 37.1638 3.46474L39.8441 3.07527C40.007 3.05161 40.1478 2.94932 40.2206 2.80175L41.4192 0.373017ZM53.4192 0.373017C53.6026 0.00139391 54.1326 0.00139329 54.316 0.373016L55.5146 2.80175C55.5875 2.94932 55.7282 3.05161 55.8911 3.07527L58.5714 3.46474C58.9815 3.52433 59.1452 4.02832 58.8485 4.31758L56.909 6.20809C56.7912 6.32296 56.7374 6.48846 56.7652 6.65066L57.2231 9.32009C57.2931 9.72855 56.8644 10.04 56.4976 9.84718L54.1003 8.58685C53.9546 8.51027 53.7806 8.51027 53.6349 8.58685L51.2376 9.84718C50.8708 10.04 50.4421 9.72855 50.5122 9.3201L50.97 6.65066C50.9978 6.48846 50.944 6.32296 50.8262 6.20809L48.8867 4.31758C48.59 4.02832 48.7537 3.52433 49.1638 3.46474L51.8441 3.07527C52.007 3.05161 52.1478 2.94932 52.2206 2.80175L53.4192 0.373017Z" fill="#FFC700"/>
<path d="M5.41923 0.373017C5.60264 0.00139391 6.13256 0.00139329 6.31597 0.373016L7.51462 2.80175C7.58745 2.94932 7.72824 3.05161 7.89109 3.07527L10.5714 3.46474C10.9815 3.52433 11.1452 4.02832 10.8485 4.31758L8.90901 6.20809C8.79116 6.32296 8.73739 6.48846 8.76521 6.65066L9.22305 9.32009C9.29311 9.72855 8.86439 10.04 8.49758 9.84718L6.10027 8.58685C5.95461 8.51027 5.78059 8.51027 5.63493 8.58685L3.23763 9.84718C2.87082 10.04 2.4421 9.72855 2.51215 9.3201L2.97 6.65066C2.99782 6.48846 2.94404 6.32296 2.8262 6.20809L0.88674 4.31758C0.589981 4.02832 0.753736 3.52433 1.16385 3.46474L3.84411 3.07527C4.00697 3.05161 4.14775 2.94932 4.22058 2.80175L5.41923 0.373017ZM17.4192 0.373017C17.6026 0.00139391 18.1326 0.00139329 18.316 0.373016L19.5146 2.80175C19.5875 2.94932 19.7282 3.05161 19.8911 3.07527L22.5714 3.46474C22.9815 3.52433 23.1452 4.02832 22.8485 4.31758L20.909 6.20809C20.7912 6.32296 20.7374 6.48846 20.7652 6.65066L21.2231 9.32009C21.2931 9.72855 20.8644 10.04 20.4976 9.84718L18.1003 8.58685C17.9546 8.51027 17.7806 8.51027 17.6349 8.58685L15.2376 9.84718C14.8708 10.04 14.4421 9.72855 14.5122 9.3201L14.97 6.65066C14.9978 6.48846 14.944 6.32296 14.8262 6.20809L12.8867 4.31758C12.59 4.02832 12.7537 3.52433 13.1638 3.46474L15.8441 3.07527C16.007 3.05161 16.1478 2.94932 16.2206 2.80175L17.4192 0.373017ZM29.4192 0.373017C29.6026 0.00139391 30.1326 0.00139329 30.316 0.373016L31.5146 2.80175C31.5875 2.94932 31.7282 3.05161 31.8911 3.07527L34.5714 3.46474C34.9815 3.52433 35.1452 4.02832 34.8485 4.31758L32.909 6.20809C32.7912 6.32296 32.7374 6.48846 32.7652 6.65066L33.2231 9.32009C33.2931 9.72855 32.8644 10.04 32.4976 9.84718L30.1003 8.58685C29.9546 8.51027 29.7806 8.51027 29.6349 8.58685L27.2376 9.84718C26.8708 10.04 26.4421 9.72855 26.5122 9.3201L26.97 6.65066C26.9978 6.48846 26.944 6.32296 26.8262 6.20809L24.8867 4.31758C24.59 4.02832 24.7537 3.52433 25.1638 3.46474L27.8441 3.07527C28.007 3.05161 28.1478 2.94932 28.2206 2.80175L29.4192 0.373017ZM41.4192 0.373017C41.6026 0.00139391 42.1326 0.00139329 42.316 0.373016L43.5146 2.80175C43.5875 2.94932 43.7282 3.05161 43.8911 3.07527L46.5714 3.46474C46.9815 3.52433 47.1452 4.02832 46.8485 4.31758L44.909 6.20809C44.7912 6.32296 44.7374 6.48846 44.7652 6.65066L45.2231 9.32009C45.2931 9.72855 44.8644 10.04 44.4976 9.84718L42.1003 8.58685C41.9546 8.51027 41.7806 8.51027 41.6349 8.58685L39.2376 9.84718C38.8708 10.04 38.4421 9.72855 38.5122 9.3201L38.97 6.65066C38.9978 6.48846 38.944 6.32296 38.8262 6.20809L36.8867 4.31758C36.59 4.02832 36.7537 3.52433 37.1638 3.46474L39.8441 3.07527C40.007 3.05161 40.1478 2.94932 40.2206 2.80175L41.4192 0.373017ZM53.4192 0.373017C53.6026 0.00139391 54.1326 0.00139329 54.316 0.373016L55.5146 2.80175C55.5875 2.94932 55.7282 3.05161 55.8911 3.07527L58.5714 3.46474C58.9815 3.52433 59.1452 4.02832 58.8485 4.31758L56.909 6.20809C56.7912 6.32296 56.7374 6.48846 56.7652 6.65066L57.2231 9.32009C57.2931 9.72855 56.8644 10.04 56.4976 9.84718L54.1003 8.58685C53.9546 8.51027 53.7806 8.51027 53.6349 8.58685L51.2376 9.84718C50.8708 10.04 50.4421 9.72855 50.5122 9.3201L50.97 6.65066C50.9978 6.48846 50.944 6.32296 50.8262 6.20809L48.8867 4.31758C48.59 4.02832 48.7537 3.52433 49.1638 3.46474L51.8441 3.07527C52.007 3.05161 52.1478 2.94932 52.2206 2.80175L53.4192 0.373017Z" fill="#FFC700"/>
<path d="M5.41923 0.373017C5.60264 0.00139391 6.13256 0.00139329 6.31597 0.373016L7.51462 2.80175C7.58745 2.94932 7.72824 3.05161 7.89109 3.07527L10.5714 3.46474C10.9815 3.52433 11.1452 4.02832 10.8485 4.31758L8.90901 6.20809C8.79116 6.32296 8.73739 6.48846 8.76521 6.65066L9.22305 9.32009C9.29311 9.72855 8.86439 10.04 8.49758 9.84718L6.10027 8.58685C5.95461 8.51027 5.78059 8.51027 5.63493 8.58685L3.23763 9.84718C2.87082 10.04 2.4421 9.72855 2.51215 9.3201L2.97 6.65066C2.99782 6.48846 2.94404 6.32296 2.8262 6.20809L0.88674 4.31758C0.589981 4.02832 0.753736 3.52433 1.16385 3.46474L3.84411 3.07527C4.00697 3.05161 4.14775 2.94932 4.22058 2.80175L5.41923 0.373017ZM17.4192 0.373017C17.6026 0.00139391 18.1326 0.00139329 18.316 0.373016L19.5146 2.80175C19.5875 2.94932 19.7282 3.05161 19.8911 3.07527L22.5714 3.46474C22.9815 3.52433 23.1452 4.02832 22.8485 4.31758L20.909 6.20809C20.7912 6.32296 20.7374 6.48846 20.7652 6.65066L21.2231 9.32009C21.2931 9.72855 20.8644 10.04 20.4976 9.84718L18.1003 8.58685C17.9546 8.51027 17.7806 8.51027 17.6349 8.58685L15.2376 9.84718C14.8708 10.04 14.4421 9.72855 14.5122 9.3201L14.97 6.65066C14.9978 6.48846 14.944 6.32296 14.8262 6.20809L12.8867 4.31758C12.59 4.02832 12.7537 3.52433 13.1638 3.46474L15.8441 3.07527C16.007 3.05161 16.1478 2.94932 16.2206 2.80175L17.4192 0.373017ZM29.4192 0.373017C29.6026 0.00139391 30.1326 0.00139329 30.316 0.373016L31.5146 2.80175C31.5875 2.94932 31.7282 3.05161 31.8911 3.07527L34.5714 3.46474C34.9815 3.52433 35.1452 4.02832 34.8485 4.31758L32.909 6.20809C32.7912 6.32296 32.7374 6.48846 32.7652 6.65066L33.2231 9.32009C33.2931 9.72855 32.8644 10.04 32.4976 9.84718L30.1003 8.58685C29.9546 8.51027 29.7806 8.51027 29.6349 8.58685L27.2376 9.84718C26.8708 10.04 26.4421 9.72855 26.5122 9.3201L26.97 6.65066C26.9978 6.48846 26.944 6.32296 26.8262 6.20809L24.8867 4.31758C24.59 4.02832 24.7537 3.52433 25.1638 3.46474L27.8441 3.07527C28.007 3.05161 28.1478 2.94932 28.2206 2.80175L29.4192 0.373017ZM41.4192 0.373017C41.6026 0.00139391 42.1326 0.00139329 42.316 0.373016L43.5146 2.80175C43.5875 2.94932 43.7282 3.05161 43.8911 3.07527L46.5714 3.46474C46.9815 3.52433 47.1452 4.02832 46.8485 4.31758L44.909 6.20809C44.7912 6.32296 44.7374 6.48846 44.7652 6.65066L45.2231 9.32009C45.2931 9.72855 44.8644 10.04 44.4976 9.84718L42.1003 8.58685C41.9546 8.51027 41.7806 8.51027 41.6349 8.58685L39.2376 9.84718C38.8708 10.04 38.4421 9.72855 38.5122 9.3201L38.97 6.65066C38.9978 6.48846 38.944 6.32296 38.8262 6.20809L36.8867 4.31758C36.59 4.02832 36.7537 3.52433 37.1638 3.46474L39.8441 3.07527C40.007 3.05161 40.1478 2.94932 40.2206 2.80175L41.4192 0.373017ZM53.4192 0.373017C53.6026 0.00139391 54.1326 0.00139329 54.316 0.373016L55.5146 2.80175C55.5875 2.94932 55.7282 3.05161 55.8911 3.07527L58.5714 3.46474C58.9815 3.52433 59.1452 4.02832 58.8485 4.31758L56.909 6.20809C56.7912 6.32296 56.7374 6.48846 56.7652 6.65066L57.2231 9.32009C57.2931 9.72855 56.8644 10.04 56.4976 9.84718L54.1003 8.58685C53.9546 8.51027 53.7806 8.51027 53.6349 8.58685L51.2376 9.84718C50.8708 10.04 50.4421 9.72855 50.5122 9.3201L50.97 6.65066C50.9978 6.48846 50.944 6.32296 50.8262 6.20809L48.8867 4.31758C48.59 4.02832 48.7537 3.52433 49.1638 3.46474L51.8441 3.07527C52.007 3.05161 52.1478 2.94932 52.2206 2.80175L53.4192 0.373017Z" fill="#FFC700"/>
</svg>
