<svg width="77" height="70" viewBox="0 0 77 70" fill="none" xmlns="http://www.w3.org/2000/svg">
<path fill-rule="evenodd" clip-rule="evenodd" d="M21.2967 69.9637C20.9875 69.9424 20.6771 69.9253 20.3674 69.8975C18.6336 69.7354 17.0439 69.1733 15.6325 68.1564C13.1972 66.4017 11.6402 64.0685 11.0193 61.1323C10.7875 60.029 10.7227 58.9156 10.7934 57.7915C10.8737 56.4729 11.1376 55.1939 11.5586 53.9426C12.231 51.9459 13.2453 50.1344 14.529 48.4644C15.4963 47.206 16.5915 46.066 17.7983 45.0319C18.928 44.0635 19.9529 42.9939 20.9138 41.8615C22.1225 40.434 23.2159 38.9213 24.2962 37.3978C25.251 36.0508 26.1893 34.696 27.203 33.3938C27.9652 32.4118 28.769 31.4659 29.6644 30.602C30.7851 29.5223 32.0217 28.6083 33.4795 28.0156C34.5729 27.5701 35.709 27.3346 36.8916 27.3098C38.2282 27.279 39.5487 27.4109 40.8483 27.7269C42.8376 28.2126 44.5613 29.1757 46.0453 30.5765C47.0602 31.5391 47.9193 32.6282 48.7183 33.7682C49.5656 34.9768 50.3439 36.2292 51.1464 37.4675C52.0513 38.8619 52.986 40.2338 54.0299 41.5317C55.0698 42.825 56.2172 44.0182 57.47 45.1097C58.9855 46.4302 60.3304 47.9003 61.476 49.5502C62.4529 50.9659 63.2489 52.4709 63.8049 54.0978C64.2377 55.365 64.51 56.6606 64.579 58C64.6854 60.034 64.3328 61.9786 63.4054 63.8078C62.5468 65.5033 61.3042 66.8646 59.7435 67.946C58.596 68.7405 57.3588 69.3445 55.9955 69.6805C55.5133 69.8012 55.0228 69.8876 54.5276 69.9349C54.4586 69.9414 54.392 69.9544 54.3254 69.9645C54.2606 70.0012 54.1893 69.974 54.1209 69.9822C54.0644 69.9899 54.0049 69.9645 53.9514 70H52.6815C52.6309 69.9633 52.5739 69.9888 52.5204 69.9822H52.2528C51.1695 69.9473 50.1178 69.7225 49.0696 69.4812C47.2931 69.0688 45.5523 68.5269 43.7853 68.0791C42.3542 67.7176 40.9112 67.4242 39.4427 67.2573C38.4249 67.1414 37.4046 67.1284 36.3874 67.1633C35.5735 67.1905 34.7655 67.3153 33.9652 67.4632C32.3849 67.759 30.8361 68.1826 29.2868 68.6032C27.6476 69.0511 26.0085 69.4965 24.3308 69.7693C23.6482 69.8787 22.9645 69.9728 22.2707 69.9663C22.1286 69.9645 21.9871 69.9858 21.8426 69.9822C21.6583 69.9722 21.4774 70.0051 21.2967 69.9637Z" fill="white"/>
<path fill-rule="evenodd" clip-rule="evenodd" d="M52.6092 0.0293731C54.8935 0.302693 56.6385 1.45749 57.9713 3.27962C58.8851 4.52908 59.4595 5.92998 59.8156 7.42797C60.12 8.71824 60.2347 10.0274 60.1913 11.352C60.1111 13.7858 59.5367 16.0978 58.4749 18.2914C57.7395 19.8112 56.79 21.182 55.5796 22.364C54.5011 23.4147 53.2816 24.2541 51.8583 24.7778C50.8583 25.1452 49.8304 25.3268 48.765 25.2635C46.9207 25.1576 45.3547 24.4282 44.0389 23.1544C42.917 22.0671 42.1523 20.7526 41.6233 19.2972C41.2535 18.2796 41.0222 17.2302 40.9021 16.1576C40.8188 15.4223 40.7855 14.6863 40.8093 13.9498C40.864 12.2122 41.1774 10.5203 41.7451 8.87748C42.348 7.1287 43.2018 5.51668 44.3676 4.07488C45.3486 2.86211 46.495 1.83692 47.8707 1.07967C48.8814 0.522385 49.9582 0.162103 51.1104 0.0325379C51.1455 0.0130146 51.1835 0.0212975 51.2198 0.0189311H51.3292C51.3821 0.0124235 51.4386 0.0378623 51.4849 0H52.2335C52.2822 0.0384544 52.3363 0.0130152 52.3892 0.0189311H52.4992C52.5343 0.0183396 52.5735 0.00866726 52.6092 0.0293731Z" fill="white"/>
<path fill-rule="evenodd" clip-rule="evenodd" d="M0.068987 26.8674C0.10466 26.1735 0.230109 25.4926 0.413225 24.8229C0.76757 23.5208 1.34844 22.3346 2.25276 21.3182C3.26348 20.1841 4.51329 19.4505 6.00975 19.1547C7.22501 18.9157 8.42416 19.0181 9.60313 19.3796C10.9581 19.796 12.1566 20.5042 13.2221 21.4259C14.8773 22.8535 16.064 24.6098 16.8856 26.6196C17.3155 27.672 17.6127 28.7618 17.7774 29.8857C17.8577 30.4312 17.8957 30.9796 17.907 31.5309C17.9267 32.5775 17.8208 33.6068 17.5604 34.6197C17.2126 35.9709 16.627 37.2003 15.6935 38.2533C14.6221 39.4608 13.2869 40.2127 11.6857 40.4713C10.5108 40.6612 9.3562 40.5334 8.22609 40.1701C6.70643 39.6791 5.40378 38.8361 4.25692 37.7445C3.13798 36.6826 2.2486 35.4498 1.55592 34.0784C0.876359 32.7331 0.407847 31.3151 0.181931 29.8236C0.142691 29.5597 0.110585 29.2959 0.0743182 29.0332C0.0463751 28.9125 0.0570763 28.7901 0.0285382 28.67C0.0148636 28.6197 0.0225929 28.5724 0.0202145 28.5209C0.0101073 28.457 0.0392396 28.389 0 28.3251V27.3584C0.060644 27.2702 0.0309162 27.172 0.0374564 27.0774C0.0428072 27.0076 0.0249907 26.9325 0.068987 26.8674Z" fill="white"/>
<path fill-rule="evenodd" clip-rule="evenodd" d="M16.1064 11.359C16.1142 9.43979 16.3888 7.70873 17.0339 6.04279C17.5209 4.78328 18.1891 3.63142 19.1196 2.63988C20.122 1.56968 21.3128 0.801742 22.7487 0.440838C24.1851 0.0776028 25.5966 0.181133 26.9842 0.681021C28.2066 1.12177 29.2726 1.81748 30.2198 2.69545C31.7317 4.09458 32.8144 5.78425 33.5855 7.67782C34.0754 8.88231 34.4131 10.1271 34.6057 11.4103C34.7151 12.138 34.7781 12.8715 34.793 13.6104C34.809 14.5398 34.7502 15.4662 34.5962 16.3837C34.2757 18.3011 33.6217 20.0877 32.4559 21.6667C31.7305 22.6464 30.85 23.4562 29.7692 24.0396C28.5617 24.691 27.2685 24.9631 25.9005 24.8578C24.6638 24.7637 23.5235 24.3615 22.4599 23.7338C21.0723 22.9162 19.9492 21.8134 19.0139 20.5161C17.905 18.9749 17.1428 17.2711 16.6607 15.4401C16.3967 14.4385 16.2278 13.4198 16.1511 12.3869C16.1202 12 16.0933 11.6104 16.1064 11.359Z" fill="white"/>
<path fill-rule="evenodd" clip-rule="evenodd" d="M76.7091 27.9925V28.2156C76.6241 30.0661 76.1259 31.8084 75.3227 33.4695C74.6901 34.7716 73.8833 35.9578 72.8839 37.0096C71.6021 38.3614 70.1146 39.4157 68.3464 40.0486C67.2869 40.4278 66.1959 40.6142 65.0681 40.5526C63.4033 40.4592 61.9504 39.8587 60.7279 38.7293C59.7189 37.7958 59.053 36.6475 58.6338 35.3549C58.2563 34.1966 58.1035 33.0021 58.1421 31.7858C58.2248 29.1119 59.0744 26.681 60.5465 24.4565C61.0435 23.7034 61.6137 23.0076 62.2529 22.3716C63.568 21.0683 65.0717 20.0655 66.8523 19.4976C67.8648 19.1769 68.8999 19.0302 69.96 19.1124C71.5796 19.2373 72.9916 19.8466 74.1765 20.9587C75.2455 21.9621 75.9197 23.201 76.327 24.5923C76.5517 25.3608 76.6831 26.1471 76.7099 26.9487V27.1735C76.7009 27.4451 76.7014 27.7186 76.7091 27.9925Z" fill="white"/>
</svg>
